<svg viewBox="0 0 800 130" xmlns="http://www.w3.org/2000/svg">
  <defs>
    <marker id="a" markerWidth="6" markerHeight="6" refX="5" refY="3" orient="auto"><path d="M0,0 L6,3 L0,6Z" fill="#B6FF3C"/></marker>
    <marker id="b" markerWidth="6" markerHeight="6" refX="5" refY="3" orient="auto"><path d="M0,0 L6,3 L0,6Z" fill="#34E0E0"/></marker>
    <linearGradient id="bg" x1="0" y1="0" x2="1" y2="1"><stop offset="0%" stop-color="#0E131C"/><stop offset="100%" stop-color="#161D2A"/></linearGradient>
  </defs>
  <rect width="800" height="130" fill="url(#bg)"/>
  <g stroke="#1F2937" stroke-width="0.4" opacity="0.5">
    <line x1="0" y1="43" x2="800" y2="43"/><line x1="0" y1="86" x2="800" y2="86"/>
    <line x1="160" y1="0" x2="160" y2="130"/><line x1="320" y1="0" x2="320" y2="130"/>
    <line x1="480" y1="0" x2="480" y2="130"/><line x1="640" y1="0" x2="640" y2="130"/>
  </g>
  <!-- Legacy badge -->
  <rect x="14" y="28" width="110" height="74" rx="3" fill="#161D2A" stroke="#1F2937" stroke-dasharray="5,3"/>
  <text x="69" y="55" fill="#8492A6" font-family="monospace" font-size="9" text-anchor="middle">LEGACY</text>
  <text x="69" y="68" fill="#8492A6" font-family="monospace" font-size="9" text-anchor="middle">SYSTEM</text>
  <text x="69" y="83" fill="#1F2937" font-family="monospace" font-size="7.5" text-anchor="middle">Quickbit / Valuno</text>
  <text x="69" y="94" fill="#1F2937" font-family="monospace" font-size="7" text-anchor="middle">PHP · Laravel</text>
  <!-- arrow -->
  <line x1="124" y1="65" x2="152" y2="65" stroke="#B6FF3C" stroke-width="1.2" marker-end="url(#a)"/>
  <!-- REST API enhanced -->
  <rect x="154" y="30" width="112" height="70" rx="3" fill="#B6FF3C"/>
  <text x="210" y="60" fill="#080B11" font-family="monospace" font-size="10" text-anchor="middle" font-weight="bold">REST</text>
  <text x="210" y="74" fill="#080B11" font-family="monospace" font-size="10" text-anchor="middle" font-weight="bold">APIs</text>
  <text x="210" y="87" fill="#6F8F2E" font-family="monospace" font-size="8" text-anchor="middle">Optimised ↑</text>
  <!-- 3 arrows out -->
  <line x1="266" y1="48" x2="318" y2="24" stroke="#B6FF3C" stroke-width="1.2" marker-end="url(#a)"/>
  <line x1="266" y1="65" x2="318" y2="65" stroke="#34E0E0" stroke-width="1.2" marker-end="url(#b)"/>
  <line x1="266" y1="82" x2="318" y2="106" stroke="#B6FF3C" stroke-width="1.2" marker-end="url(#a)"/>
  <!-- Affiliate -->
  <rect x="320" y="10" width="118" height="30" rx="3" fill="#161D2A" stroke="#B6FF3C" stroke-width="1"/>
  <text x="379" y="22" fill="#B6FF3C" font-family="monospace" font-size="9" text-anchor="middle">AFFILIATE PORTAL</text>
  <text x="379" y="33" fill="#8492A6" font-family="monospace" font-size="7.5" text-anchor="middle">Partner management</text>
  <!-- Payment GW -->
  <rect x="320" y="50" width="118" height="30" rx="3" fill="#161D2A" stroke="#34E0E0" stroke-width="1.5"/>
  <text x="379" y="62" fill="#34E0E0" font-family="monospace" font-size="9" text-anchor="middle">PAYMENT GATEWAY</text>
  <text x="379" y="73" fill="#8492A6" font-family="monospace" font-size="7.5" text-anchor="middle">Transactions</text>
  <!-- Account Mgmt -->
  <rect x="320" y="90" width="118" height="30" rx="3" fill="#161D2A" stroke="#B6FF3C" stroke-width="1"/>
  <text x="379" y="102" fill="#B6FF3C" font-family="monospace" font-size="9" text-anchor="middle">ACCOUNT MGMT</text>
  <text x="379" y="113" fill="#8492A6" font-family="monospace" font-size="7.5" text-anchor="middle">User lifecycle</text>
  <!-- GW arrow to PSP -->
  <line x1="438" y1="65" x2="488" y2="65" stroke="#34E0E0" stroke-width="1.2" marker-end="url(#b)"/>
  <!-- PSP -->
  <rect x="490" y="50" width="100" height="30" rx="3" fill="#161D2A" stroke="#34E0E0" stroke-width="1"/>
  <text x="540" y="62" fill="#34E0E0" font-family="monospace" font-size="9" text-anchor="middle">ACQUIRING</text>
  <text x="540" y="73" fill="#8492A6" font-family="monospace" font-size="7.5" text-anchor="middle">PSP Settlement</text>
  <!-- Multizone badge -->
  <rect x="618" y="30" width="120" height="70" rx="3" fill="#161D2A" stroke="#1F2937" stroke-width="1"/>
  <text x="678" y="52" fill="#8492A6" font-family="monospace" font-size="8" text-anchor="middle">REMOTE TEAMS</text>
  <text x="678" y="65" fill="#8492A6" font-family="monospace" font-size="7" text-anchor="middle">Multi-timezone</text>
  <text x="678" y="78" fill="#1F2937" font-family="monospace" font-size="7" text-anchor="middle">EU · PK · SE</text>
  <line x1="630" y1="88" x2="726" y2="88" stroke="#1F2937" stroke-width="0.5"/>
  <text x="678" y="96" fill="#1F2937" font-family="monospace" font-size="6.5" text-anchor="middle">Knowledge transfer</text>
  <!-- label -->
  <text x="400" y="14" fill="#8492A6" font-family="monospace" font-size="7" text-anchor="middle" opacity="0.35" letter-spacing="2">QUICKBIT (VALUNO) — LEGACY SYSTEM STABILISATION</text>
</svg>
