<svg viewBox="0 0 800 130" xmlns="http://www.w3.org/2000/svg">
  <defs>
    <marker id="a" markerWidth="6" markerHeight="6" refX="5" refY="3" orient="auto"><path d="M0,0 L6,3 L0,6Z" fill="#B6FF3C"/></marker>
    <marker id="b" markerWidth="6" markerHeight="6" refX="5" refY="3" orient="auto"><path d="M0,0 L6,3 L0,6Z" fill="#34E0E0"/></marker>
    <linearGradient id="bg" x1="0" y1="0" x2="1" y2="1"><stop offset="0%" stop-color="#0E131C"/><stop offset="100%" stop-color="#161D2A"/></linearGradient>
  </defs>
  <rect width="800" height="130" fill="url(#bg)"/>
  <g stroke="#1F2937" stroke-width="0.4" opacity="0.5">
    <line x1="0" y1="43" x2="800" y2="43"/><line x1="0" y1="86" x2="800" y2="86"/>
    <line x1="160" y1="0" x2="160" y2="130"/><line x1="320" y1="0" x2="320" y2="130"/>
    <line x1="480" y1="0" x2="480" y2="130"/><line x1="640" y1="0" x2="640" y2="130"/>
  </g>
  <!-- Merchant -->
  <rect x="18" y="44" width="90" height="38" rx="3" fill="#161D2A" stroke="#1F2937" stroke-width="1"/>
  <text x="63" y="60" fill="#8492A6" font-family="monospace" font-size="9" text-anchor="middle">MERCHANT</text>
  <text x="63" y="74" fill="#8492A6" font-family="monospace" font-size="7.5" text-anchor="middle">payout request</text>
  <!-- arrow -->
  <line x1="108" y1="63" x2="142" y2="63" stroke="#B6FF3C" stroke-width="1.2" marker-end="url(#a)"/>
  <!-- lightning bolt -->
  <text x="125" y="56" fill="#B6FF3C" font-family="monospace" font-size="12" text-anchor="middle" opacity="0.7">⚡</text>
  <!-- Payout API -->
  <rect x="144" y="30" width="108" height="66" rx="3" fill="#B6FF3C"/>
  <text x="198" y="59" fill="#080B11" font-family="monospace" font-size="10" text-anchor="middle" font-weight="bold">PAYOUT</text>
  <text x="198" y="73" fill="#080B11" font-family="monospace" font-size="10" text-anchor="middle" font-weight="bold">API</text>
  <text x="198" y="86" fill="#6F8F2E" font-family="monospace" font-size="8" text-anchor="middle">PHP</text>
  <!-- arrow -->
  <line x1="252" y1="63" x2="290" y2="63" stroke="#34E0E0" stroke-width="1.2" marker-end="url(#b)"/>
  <!-- Intergiro BAAS -->
  <rect x="292" y="30" width="126" height="66" rx="3" fill="#161D2A" stroke="#34E0E0" stroke-width="1.5"/>
  <text x="355" y="57" fill="#34E0E0" font-family="monospace" font-size="9" text-anchor="middle">INTERGIRO</text>
  <text x="355" y="70" fill="#34E0E0" font-family="monospace" font-size="9" text-anchor="middle">BAAS</text>
  <rect x="304" y="78" width="102" height="5" rx="1" fill="#1F2937"/>
  <text x="355" y="90" fill="#8492A6" font-family="monospace" font-size="7.5" text-anchor="middle">Banking-as-a-Service</text>
  <!-- arrow -->
  <line x1="418" y1="63" x2="456" y2="63" stroke="#34E0E0" stroke-width="1.2" marker-end="url(#b)"/>
  <!-- InchargeCard -->
  <rect x="458" y="30" width="120" height="66" rx="3" fill="#161D2A" stroke="#B6FF3C" stroke-width="1"/>
  <text x="518" y="57" fill="#B6FF3C" font-family="monospace" font-size="9" text-anchor="middle">INCHARGE</text>
  <text x="518" y="70" fill="#B6FF3C" font-family="monospace" font-size="9" text-anchor="middle">CARD</text>
  <text x="518" y="87" fill="#8492A6" font-family="monospace" font-size="7.5" text-anchor="middle">Disbursement</text>
  <!-- arrow -->
  <line x1="578" y1="63" x2="616" y2="63" stroke="#B6FF3C" stroke-width="1.2" marker-end="url(#a)"/>
  <!-- Bank -->
  <rect x="618" y="44" width="110" height="38" rx="3" fill="#161D2A" stroke="#B6FF3C" stroke-width="1"/>
  <text x="673" y="60" fill="#B6FF3C" font-family="monospace" font-size="9" text-anchor="middle">BENEFICIARY</text>
  <text x="673" y="74" fill="#8492A6" font-family="monospace" font-size="7.5" text-anchor="middle">Bank Rails</text>
  <!-- INSTANT badge top -->
  <text x="400" y="18" fill="#B6FF3C" font-family="monospace" font-size="8" text-anchor="middle" letter-spacing="3" opacity="0.5">⚡ INSTANT PAYOUT FLOW ⚡</text>
</svg>
