<svg viewBox="0 0 800 130" xmlns="http://www.w3.org/2000/svg">
  <defs>
    <marker id="a" markerWidth="6" markerHeight="6" refX="5" refY="3" orient="auto"><path d="M0,0 L6,3 L0,6Z" fill="#B6FF3C"/></marker>
    <marker id="b" markerWidth="6" markerHeight="6" refX="5" refY="3" orient="auto"><path d="M0,0 L6,3 L0,6Z" fill="#34E0E0"/></marker>
    <linearGradient id="bg" x1="0" y1="0" x2="1" y2="1"><stop offset="0%" stop-color="#0E131C"/><stop offset="100%" stop-color="#161D2A"/></linearGradient>
  </defs>
  <rect width="800" height="130" fill="url(#bg)"/>
  <!-- subtle grid -->
  <g stroke="#1F2937" stroke-width="0.4" opacity="0.5">
    <line x1="0" y1="43" x2="800" y2="43"/><line x1="0" y1="86" x2="800" y2="86"/>
    <line x1="133" y1="0" x2="133" y2="130"/><line x1="266" y1="0" x2="266" y2="130"/>
    <line x1="400" y1="0" x2="400" y2="130"/><line x1="533" y1="0" x2="533" y2="130"/>
    <line x1="666" y1="0" x2="666" y2="130"/>
  </g>
  <!-- User -->
  <rect x="18" y="44" width="72" height="34" rx="3" fill="#161D2A" stroke="#1F2937" stroke-width="1"/>
  <text x="54" y="65" fill="#8492A6" font-family="monospace" font-size="10" text-anchor="middle">USER</text>
  <!-- arrow -->
  <line x1="90" y1="61" x2="124" y2="61" stroke="#B6FF3C" stroke-width="1.2" marker-end="url(#a)"/>
  <!-- Fiat UI -->
  <rect x="126" y="36" width="88" height="50" rx="3" fill="#161D2A" stroke="#B6FF3C" stroke-width="1.5"/>
  <text x="170" y="58" fill="#B6FF3C" font-family="monospace" font-size="9" text-anchor="middle">FIAT UI</text>
  <rect x="138" y="65" width="52" height="4" rx="1" fill="#1F2937"/>
  <rect x="138" y="73" width="36" height="4" rx="1" fill="#1F2937"/>
  <!-- arrow -->
  <line x1="214" y1="61" x2="248" y2="61" stroke="#B6FF3C" stroke-width="1.2" marker-end="url(#a)"/>
  <!-- PHP API — highlighted -->
  <rect x="250" y="30" width="104" height="62" rx="3" fill="#B6FF3C"/>
  <text x="302" y="58" fill="#080B11" font-family="monospace" font-size="10" text-anchor="middle" font-weight="bold">REST</text>
  <text x="302" y="73" fill="#080B11" font-family="monospace" font-size="10" text-anchor="middle" font-weight="bold">API</text>
  <!-- PSP arrow up-right -->
  <line x1="354" y1="47" x2="420" y2="26" stroke="#B6FF3C" stroke-width="1.2" marker-end="url(#a)"/>
  <!-- OB arrow down-right -->
  <line x1="354" y1="77" x2="420" y2="97" stroke="#34E0E0" stroke-width="1.2" marker-end="url(#b)"/>
  <!-- PSP -->
  <rect x="422" y="12" width="110" height="34" rx="3" fill="#161D2A" stroke="#B6FF3C" stroke-width="1"/>
  <text x="477" y="26" fill="#B6FF3C" font-family="monospace" font-size="9" text-anchor="middle">PSP INTEGRATIONS</text>
  <text x="477" y="38" fill="#8492A6" font-family="monospace" font-size="7.5" text-anchor="middle">Multi-provider</text>
  <!-- PSP arrow right -->
  <line x1="532" y1="29" x2="580" y2="29" stroke="#B6FF3C" stroke-width="1.2" marker-end="url(#a)"/>
  <!-- Crypto -->
  <rect x="582" y="14" width="96" height="30" rx="3" fill="#161D2A" stroke="#B6FF3C" stroke-width="1"/>
  <text x="630" y="33" fill="#B6FF3C" font-family="monospace" font-size="9" text-anchor="middle">₿ CRYPTO SETTLE</text>
  <!-- OB -->
  <rect x="422" y="84" width="110" height="34" rx="3" fill="#161D2A" stroke="#34E0E0" stroke-width="1"/>
  <text x="477" y="98" fill="#34E0E0" font-family="monospace" font-size="9" text-anchor="middle">OPEN BANKING</text>
  <text x="477" y="110" fill="#8492A6" font-family="monospace" font-size="7.5" text-anchor="middle">Secure bank transfer</text>
  <!-- OB arrow right -->
  <line x1="532" y1="101" x2="580" y2="101" stroke="#34E0E0" stroke-width="1.2" marker-end="url(#b)"/>
  <!-- Bank -->
  <rect x="582" y="86" width="96" height="30" rx="3" fill="#161D2A" stroke="#34E0E0" stroke-width="1"/>
  <text x="630" y="105" fill="#34E0E0" font-family="monospace" font-size="9" text-anchor="middle">BANK TRANSFER</text>
  <!-- label -->
  <text x="740" y="65" fill="#1F2937" font-family="monospace" font-size="7" text-anchor="middle" transform="rotate(90,740,65)">RIDM.IO</text>
</svg>
